<?xml version="1.0" encoding="UTF-8"?>
<svg version="1.1" xmlns="http://www.w3.org/2000/svg" width="500" height="500">
<path d="M0 0 C3.10608845 0.00534569 6.21203121 0.00002782 9.31811523 -0.00634766 C18.98381457 -0.01056298 28.63591381 0.09277699 38.29272461 0.52880859 C39.0827034 0.56126678 39.87268219 0.59372498 40.68659973 0.62716675 C60.47084387 1.65375721 79.03111419 10.27888081 95.30834961 21.13037109 C95.30834961 21.79037109 95.30834961 22.45037109 95.30834961 23.13037109 C95.87038086 23.37787109 96.43241211 23.62537109 97.01147461 23.88037109 C115.032548 33.68775797 127.25092402 57.30716461 132.94555664 76.25 C135.44701941 85.09721631 137.34615789 93.8751628 136.30834961 103.13037109 C135.30834961 104.13037109 135.30834961 104.13037109 132.79637146 104.25062561 C131.67940384 104.248405 130.56243622 104.24618439 129.41162109 104.24389648 C128.15038925 104.24382095 126.88915741 104.24374542 125.58970642 104.2436676 C124.20295167 104.23856019 122.81619732 104.23334419 121.42944336 104.22802734 C120.01839752 104.22616311 118.60735104 104.22473923 117.19630432 104.22373962 C113.47594426 104.21991489 109.75562301 104.21008499 106.03527832 104.19903564 C102.2415418 104.18882057 98.44779903 104.1842418 94.65405273 104.17919922 C87.2054673 104.16846267 79.75691388 104.15138679 72.30834961 104.13037109 C70.52032235 100.73339341 69.69343846 97.65398869 68.93334961 93.88037109 C67.31447626 86.59544104 64.88080346 81.07456109 60.30834961 75.13037109 C60.30834961 74.47037109 60.30834961 73.81037109 60.30834961 73.13037109 C59.64834961 73.13037109 58.98834961 73.13037109 58.30834961 73.13037109 C58.30834961 72.47037109 58.30834961 71.81037109 58.30834961 71.13037109 C57.73213867 70.84291016 57.15592773 70.55544922 56.56225586 70.25927734 C55.13045136 69.54213436 53.70052924 68.82121102 52.27319336 68.09521484 C51.60416992 67.75619141 50.93514648 67.41716797 50.24584961 67.06787109 C49.23844727 66.55546875 49.23844727 66.55546875 48.21069336 66.03271484 C41.9662396 63.07076655 34.23409711 63.02589694 27.62866211 64.88427734 C19.5603176 68.34796059 14.64508441 72.95537083 11.30834961 81.13037109 C9.46530953 88.1991041 10.32282318 94.50793066 13.30834961 101.13037109 C19.17852763 111.09725945 28.78835148 116.97495796 38.24584961 123.19287109 C39.29192383 123.88703125 40.33799805 124.58119141 41.41577148 125.29638672 C45.9212612 128.2783356 50.43055329 131.21918082 55.06225586 134.00146484 C56.1334668 134.70400391 57.20467773 135.40654297 58.30834961 136.13037109 C58.30834961 136.79037109 58.30834961 137.45037109 58.30834961 138.13037109 C59.03280273 138.39849609 59.75725586 138.66662109 60.50366211 138.94287109 C63.291596 140.12327765 65.64499176 141.48557847 68.18334961 143.13037109 C69.14112305 143.75041016 70.09889648 144.37044922 71.08569336 145.00927734 C75.9420243 148.20562607 80.78476565 151.42113562 85.60913086 154.66552734 C87.87980854 156.18887856 90.16194888 157.66821231 92.47631836 159.12646484 C103.71199592 166.26564702 113.75458344 175.10647377 121.30834961 186.13037109 C121.87811523 186.92314453 122.44788086 187.71591797 123.03491211 188.53271484 C138.47477713 211.14837616 142.504656 239.05894194 137.71704102 265.68896484 C132.86295498 289.99710715 119.80107291 315.36304238 99.30834961 330.13037109 C98.64834961 330.13037109 97.98834961 330.13037109 97.30834961 330.13037109 C97.30834961 330.79037109 97.30834961 331.45037109 97.30834961 332.13037109 C76.55882807 348.39588586 50.87846142 354.45862952 25.05444336 354.43115234 C23.50285226 354.43505429 21.95126221 354.43939194 20.39967346 354.44413757 C17.16143319 354.45155157 13.92330199 354.4513455 10.68505859 354.44604492 C7.40464531 354.44142382 4.12460358 354.4482971 0.84423828 354.46655273 C-38.43475171 354.68341132 -68.70314414 349.9220111 -98.92602539 322.97802734 C-100.69165039 321.13037109 -100.69165039 321.13037109 -100.69165039 319.13037109 C-101.35165039 319.13037109 -102.01165039 319.13037109 -102.69165039 319.13037109 C-102.69165039 318.47037109 -102.69165039 317.81037109 -102.69165039 317.13037109 C-103.35165039 317.13037109 -104.01165039 317.13037109 -104.69165039 317.13037109 C-119.52530401 298.40995583 -129.63793345 275.36573162 -128.69165039 251.13037109 C-125.24620316 250.06716269 -122.13984414 250.04290413 -118.54614258 250.10864258 C-117.30515808 250.12873886 -116.06417358 250.14883514 -114.7855835 250.16954041 C-113.43656182 250.19673446 -112.0875425 250.22404534 -110.73852539 250.25146484 C-109.3541951 250.27577913 -107.96985645 250.29962203 -106.58551025 250.32301331 C-102.9489589 250.38572411 -99.31255619 250.45482723 -95.67614746 250.52526855 C-91.96263372 250.59606977 -88.24901494 250.6608161 -84.53540039 250.72607422 C-77.25403418 250.85491883 -69.97281436 250.99051766 -62.69165039 251.13037109 C-62.51061768 252.21286133 -62.32958496 253.29535156 -62.14306641 254.41064453 C-61.89022691 255.85376557 -61.63686234 257.29679467 -61.38305664 258.73974609 C-61.2656311 259.45050293 -61.14820557 260.16125977 -61.02722168 260.89355469 C-59.85915574 267.42572438 -57.20654739 272.53003382 -53.69165039 278.13037109 C-53.00880711 279.4554927 -52.33602607 280.78612327 -51.69165039 282.13037109 C-51.03165039 282.13037109 -50.37165039 282.13037109 -49.69165039 282.13037109 C-49.69165039 282.79037109 -49.69165039 283.45037109 -49.69165039 284.13037109 C-48.70165039 284.50162109 -48.70165039 284.50162109 -47.69165039 284.88037109 C-45.26942182 285.889633 -43.013727 286.98345619 -40.69165039 288.19287109 C-34.6134644 291.24900573 -28.66437986 292.23200441 -21.97290039 290.37646484 C-14.42352339 287.78897676 -9.3042542 285.11751321 -5.53930664 277.90771484 C-2.34944242 271.21928986 -1.31386617 264.53803375 -3.55493164 257.36865234 C-4.53736235 254.92150675 -5.59605371 252.52836383 -6.69165039 250.13037109 C-7.02165039 249.14037109 -7.35165039 248.15037109 -7.69165039 247.13037109 C-8.35165039 247.13037109 -9.01165039 247.13037109 -9.69165039 247.13037109 C-11.81665039 245.25537109 -11.81665039 245.25537109 -13.69165039 243.13037109 C-13.69165039 242.47037109 -13.69165039 241.81037109 -13.69165039 241.13037109 C-14.79271118 240.72890869 -14.79271118 240.72890869 -15.91601562 240.31933594 C-18.63704661 239.15376105 -20.71659663 237.84668495 -23.10180664 236.10693359 C-27.20627713 233.17029081 -31.35788725 230.31923406 -35.56274414 227.52880859 C-36.16884521 227.12603195 -36.77494629 226.72325531 -37.39941406 226.30827332 C-38.65997819 225.47101442 -39.92078579 224.634122 -41.18182373 223.7975769 C-52.01019108 216.61209565 -62.80989579 209.38958469 -73.50415039 202.00537109 C-76.29679362 200.07798096 -79.10877251 198.185588 -81.94165039 196.31787109 C-104.70508233 181.21779905 -122.85272986 161.54001874 -128.69165039 134.13037109 C-128.86535156 133.33655029 -129.03905273 132.54272949 -129.21801758 131.72485352 C-135.21059028 102.19193839 -128.95377611 72.21111278 -112.69165039 47.13037109 C-97.58919387 26.28120778 -97.58919387 26.28120778 -87.69165039 23.13037109 C-87.69165039 22.47037109 -87.69165039 21.81037109 -87.69165039 21.13037109 C-75.40112165 12.34631052 -61.37477185 6.18459458 -46.69165039 2.75537109 C-46.04156006 2.59963623 -45.39146973 2.44390137 -44.72167969 2.28344727 C-30.20775422 -0.76596077 -14.74212954 -0.03007418 0 0 Z " fill="#ABACAC" transform="translate(241.691650390625,78.86962890625)"/>
<path d="M0 0 C0 0.99 0 1.98 0 3 C-1.99600896 4.36552847 -3.96574312 5.55838985 -6.0625 6.75 C-18.2254897 14.11375193 -28.6193863 24.86909769 -36 37 C-36.85078125 38.25683594 -36.85078125 38.25683594 -37.71875 39.5390625 C-41.83550239 45.9489182 -44.44541227 52.49116678 -46.875 59.6875 C-47.32262695 61.00584839 -47.32262695 61.00584839 -47.77929688 62.35083008 C-53.69952026 80.71007759 -53.70833898 104.58332203 -45 122 C-42.043358 128.38010392 -42.043358 128.38010392 -38 134 C-37.979375 135.03125 -37.95875 136.0625 -37.9375 137.125 C-36.76574809 141.96824124 -34.94127476 143.19385578 -31.15625 146.19921875 C-29.09137199 147.92369114 -27.54837242 149.65401567 -25.875 151.75 C-16.48710924 162.73762102 -2.89771564 170.84041605 8.69433594 179.31298828 C10.86457743 180.90091381 13.03081164 182.49410553 15.1953125 184.08984375 C16.48429321 185.03917357 17.7733525 185.98839669 19.0625 186.9375 C19.66771484 187.38343506 20.27292969 187.82937012 20.89648438 188.28881836 C25.30405235 191.52326707 29.78710945 194.63240287 34.33984375 197.66015625 C34.88769531 198.10230469 35.43554688 198.54445313 36 199 C36 199.66 36 200.32 36 201 C36.66 201.185625 37.32 201.37125 38 201.5625 C42.26797601 203.60757184 45.82653318 206.48545964 49 210 C49.734375 212.2265625 49.734375 212.2265625 50 214 C50.5775 214.0825 51.155 214.165 51.75 214.25 C54.81985265 215.27328422 56.0198135 216.42575755 58 219 C58.90511152 221.65940069 59.4466522 224.23326102 60 227 C60.66 227 61.32 227 62 227 C71.18767859 242.77507079 72.73528914 263.61177652 68.6796875 281.4453125 C68.45539063 282.28835938 68.23109375 283.13140625 68 284 C67.75507813 285.00804687 67.51015625 286.01609375 67.2578125 287.0546875 C61.01977808 310.07469062 44.73578127 328.79477944 24.41796875 340.62890625 C23.62003906 341.08136719 22.82210937 341.53382813 22 342 C21.37738281 342.35964844 20.75476563 342.71929687 20.11328125 343.08984375 C13.48181752 346.67169726 6.16838038 348.76510728 -1 351 C-2.13308594 351.37253906 -3.26617187 351.74507813 -4.43359375 352.12890625 C-8.55178914 353.13477435 -12.27960993 353.34414261 -16.5 353.3125 C-17.28463623 353.30758545 -18.06927246 353.3026709 -18.87768555 353.29760742 C-31.2873513 353.05300166 -42.65254193 349.99117517 -54 345 C-55.00804687 344.55785156 -56.01609375 344.11570312 -57.0546875 343.66015625 C-68.57537206 338.25890024 -79.20603759 330.20253146 -88 321 C-88 320.34 -88 319.68 -88 319 C-88.66 319 -89.32 319 -90 319 C-90 318.34 -90 317.68 -90 317 C-90.66 317 -91.32 317 -92 317 C-106.83365362 298.27958473 -116.94628306 275.23536053 -116 251 C-112.55455277 249.9367916 -109.44819375 249.91253304 -105.85449219 249.97827148 C-104.61350769 249.99836777 -103.37252319 250.01846405 -102.09393311 250.03916931 C-100.74491143 250.06636336 -99.39589211 250.09367424 -98.046875 250.12109375 C-96.66254471 250.14540804 -95.27820606 250.16925094 -93.89385986 250.19264221 C-90.25730851 250.25535301 -86.6209058 250.32445614 -82.98449707 250.39489746 C-79.27098333 250.46569868 -75.55736455 250.530445 -71.84375 250.59570312 C-64.56238379 250.72454773 -57.28116397 250.86014657 -50 251 C-49.81896729 252.08249023 -49.63793457 253.16498047 -49.45141602 254.28027344 C-49.19857652 255.72339447 -48.94521195 257.16642358 -48.69140625 258.609375 C-48.57398071 259.32013184 -48.45655518 260.03088867 -48.33557129 260.76318359 C-47.16750535 267.29535329 -44.514897 272.39966273 -41 278 C-40.31715672 279.32512161 -39.64437568 280.65575218 -39 282 C-38.34 282 -37.68 282 -37 282 C-37 282.66 -37 283.32 -37 284 C-36.01 284.37125 -36.01 284.37125 -35 284.75 C-32.57777143 285.7592619 -30.32207661 286.8530851 -28 288.0625 C-21.92181401 291.11863464 -15.97272947 292.10163332 -9.28125 290.24609375 C-1.731873 287.65860567 3.38739619 284.98714212 7.15234375 277.77734375 C10.34220798 271.08891876 11.37778423 264.40766266 9.13671875 257.23828125 C8.15428804 254.79113566 7.09559668 252.39799274 6 250 C5.67 249.01 5.34 248.02 5 247 C4.34 247 3.68 247 3 247 C0.875 245.125 0.875 245.125 -1 243 C-1 242.34 -1 241.68 -1 241 C-2.10106079 240.5985376 -2.10106079 240.5985376 -3.22436523 240.18896484 C-5.94539622 239.02338995 -8.02494624 237.71631385 -10.41015625 235.9765625 C-14.51462674 233.03991972 -18.66623686 230.18886297 -22.87109375 227.3984375 C-23.47719482 226.99566086 -24.0832959 226.59288422 -24.70776367 226.17790222 C-25.9683278 225.34064333 -27.2291354 224.5037509 -28.49017334 223.66720581 C-39.31854069 216.48172456 -50.1182454 209.25921359 -60.8125 201.875 C-63.60514323 199.94760986 -66.41712212 198.05521691 -69.25 196.1875 C-92.01343194 181.08742795 -110.16107947 161.40964765 -116 134 C-116.17370117 133.2061792 -116.34740234 132.4123584 -116.52636719 131.59448242 C-122.51893989 102.0615673 -116.26212572 72.08074168 -100 47 C-84.89754348 26.15083668 -84.89754348 26.15083668 -75 23 C-75 22.34 -75 21.68 -75 21 C-52.42496715 4.86558788 -27.24066866 -0.12133928 0 0 Z " fill="#214986" transform="translate(229,79)"/>
<path d="M0 0 C-0.66 0.66 -1.32 1.32 -2 2 C-4 2 -6 2 -8 2 C-10.20067421 2.93283296 -10.20067421 2.93283296 -12 4 C-12.66 4 -13.32 4 -14 4 C-23.46887119 5.13469944 -33.06311763 8.70874508 -41 14 C-43.07378757 15.10602004 -45.03729276 16.01223869 -47.2734375 16.74609375 C-50.65904756 18.30308634 -53.08785111 20.51899601 -55.75 23.0625 C-56.27368164 23.55637207 -56.79736328 24.05024414 -57.33691406 24.55908203 C-58.39836618 25.56386724 -59.45667894 26.57197995 -60.51171875 27.58349609 C-61.82299275 28.83152952 -63.15966647 30.05275972 -64.5 31.26953125 C-81.72500243 47.38806651 -88.79542043 71.93169881 -90.07250977 94.86157227 C-90.29182344 102.61458561 -88.93680704 109.79807743 -86 117 C-85.34 117.33 -84.68 117.66 -84 118 C-82.64198488 120.95220679 -81.41775417 123.91989985 -80.24609375 126.94921875 C-78.84754059 130.44194052 -78.2194436 131.85370427 -75 134 C-74.54625 134.78375 -74.0925 135.5675 -73.625 136.375 C-71.80193781 139.31994662 -69.70348943 140.88104882 -67 143 C-67 143.66 -67 144.32 -67 145 C-64.69 145.66 -62.38 146.32 -60 147 C-60 147.66 -60 148.32 -60 149 C-59.34 149 -58.68 149 -58 149 C-56.9818252 149.9814887 -55.98486405 150.98508975 -55 152 C-53.69079836 152.95850439 -52.35765802 153.88479151 -51.0078125 154.78515625 C-49.83532959 155.5743042 -49.83532959 155.5743042 -48.63916016 156.37939453 C-47.39465088 157.21253174 -47.39465088 157.21253174 -46.125 158.0625 C-39.10323709 162.80542165 -32.29870085 167.70736423 -25.6640625 172.9765625 C-23.04555213 175.05298883 -23.04555213 175.05298883 -20.1484375 176.6484375 C-19.08496094 177.31746094 -19.08496094 177.31746094 -18 178 C-18 178.66 -18 179.32 -18 180 C-17.41661865 180.27618164 -16.8332373 180.55236328 -16.23217773 180.83691406 C-12.56369042 182.74839537 -9.36906596 185.27836455 -6.0625 187.75 C-5.35931641 188.26304687 -4.65613281 188.77609375 -3.93164062 189.3046875 C0.34767172 192.4971267 3.94718018 195.59172818 7 200 C6.3125 203.375 6.3125 203.375 5 206 C4.34 206 3.68 206 3 206 C2.67 207.32 2.34 208.64 2 210 C0.23828125 210.6640625 0.23828125 210.6640625 -2 211 C-3.89453125 209.9609375 -3.89453125 209.9609375 -5.8125 208.375 C-8.48496478 206.21897776 -11.15687118 204.17617652 -14 202.25 C-14.99 201.5075 -15.98 200.765 -17 200 C-17 199.34 -17 198.68 -17 198 C-17.73774658 197.73590332 -18.47549316 197.47180664 -19.2355957 197.19970703 C-21.99159809 196.0036463 -23.91007486 194.6939007 -26.23046875 192.8046875 C-30.83857111 189.12011176 -35.55257311 185.61019978 -40.3125 182.125 C-41.98982293 180.89225302 -43.66690677 179.65918066 -45.34375 178.42578125 C-46.14554688 177.83619629 -46.94734375 177.24661133 -47.7734375 176.63916016 C-52.54274895 173.12806837 -57.28502397 169.58389013 -62 166 C-62.56557617 165.57654297 -63.13115234 165.15308594 -63.71386719 164.71679688 C-70.87314549 159.34637225 -77.28890596 154.02153865 -83.09375 147.14453125 C-84.79912334 145.22598624 -86.43252317 143.80947025 -88.5 142.3125 C-91.77124117 139.28660192 -91.48417436 137.34767329 -92 133 C-93.44609831 130.17768917 -95.22192728 127.62085863 -97 125 C-99.42237692 121.29845976 -100.85745795 117.79928427 -102.125 113.5625 C-102.45757812 112.47066406 -102.79015625 111.37882812 -103.1328125 110.25390625 C-109.166914 87.6124353 -104.67852477 60.8244792 -93.1875 40.5625 C-83.199613 24.17935578 -69.77605637 10.28435656 -53 1 C-52.67 0.67 -52.34 0.34 -52 0 C-34.94011085 -1.93536558 -17.05803531 -1.83349324 0 0 Z " fill="#AED9EE" transform="translate(282,80)"/>
<path d="M0 0 C7.31762395 3.50483392 12.17944064 15.40736152 14.76171875 22.68359375 C15.74886707 25.85023247 16.27282537 28.58965867 15.94921875 31.93359375 C16.60921875 31.93359375 17.26921875 31.93359375 17.94921875 31.93359375 C18.9417242 37.64050009 19.05399387 43.14767864 18.94921875 48.93359375 C19.60921875 48.93359375 20.26921875 48.93359375 20.94921875 48.93359375 C21.68343158 79.60737423 13.38957909 103.68631542 -7.625 126.515625 C-24.0960155 142.93359375 -24.0960155 142.93359375 -30.05078125 142.93359375 C-30.05078125 143.92359375 -30.05078125 144.91359375 -30.05078125 145.93359375 C-47.21078125 145.93359375 -64.37078125 145.93359375 -82.05078125 145.93359375 C-82.05078125 145.60359375 -82.05078125 145.27359375 -82.05078125 144.93359375 C-81.29796875 144.84722656 -80.54515625 144.76085937 -79.76953125 144.671875 C-67.40396379 143.03613853 -55.1999519 139.61663404 -44.05078125 133.93359375 C-43.30570313 133.55460938 -42.560625 133.175625 -41.79296875 132.78515625 C-21.44725904 121.95710057 -5.23424014 103.29171954 1.81640625 81.21875 C6.05149613 66.51693799 6.24823779 50.67140337 3.69921875 35.62109375 C3.5899707 34.94699463 3.48072266 34.27289551 3.36816406 33.57836914 C2.4251955 28.64758408 0.49595162 25.16937879 -2.05078125 20.93359375 C-2.05078125 20.27359375 -2.05078125 19.61359375 -2.05078125 18.93359375 C-2.71078125 18.93359375 -3.37078125 18.93359375 -4.05078125 18.93359375 C-4.6983575 17.49687807 -5.34377578 16.05918959 -5.98828125 14.62109375 C-6.52775391 13.42033203 -6.52775391 13.42033203 -7.078125 12.1953125 C-8.05078125 9.93359375 -8.05078125 9.93359375 -9.05078125 6.93359375 C-7.98362053 5.73153911 -6.89639788 4.54727042 -5.80078125 3.37109375 C-5.1975 2.70980469 -4.59421875 2.04851562 -3.97265625 1.3671875 C-2.05078125 -0.06640625 -2.05078125 -0.06640625 0 0 Z " fill="#B2D8ED" transform="translate(293.05078125,287.06640625)"/>
<path d="M0 0 C0 0.99 0 1.98 0 3 C-1.99600896 4.36552847 -3.96574312 5.55838985 -6.0625 6.75 C-18.2254897 14.11375193 -28.6193863 24.86909769 -36 37 C-36.85078125 38.25683594 -36.85078125 38.25683594 -37.71875 39.5390625 C-49.26388697 57.5150433 -51.32153472 77.06808964 -52 98 C-52.33 98 -52.66 98 -53 98 C-53.86116705 86.97938928 -54.1857451 76.91277114 -52 66 C-51.84425579 64.66778798 -51.69652751 63.33457175 -51.5625 62 C-50.94939886 58.73012726 -49.76135515 56.78881233 -48 54 C-47.29329272 51.30745009 -47.29329272 51.30745009 -47 49 C-46.34 49 -45.68 49 -45 49 C-44.88785156 48.43539062 -44.77570313 47.87078125 -44.66015625 47.2890625 C-43.9148219 44.70464874 -42.79752881 42.69208612 -41.4375 40.375 C-39.54061061 37.37635351 -39.54061061 37.37635351 -39 34 C-38.34 34 -37.68 34 -37 34 C-37 32.68 -37 31.36 -37 30 C-36.34 30 -35.68 30 -35 30 C-34.67 29.34 -34.34 28.68 -34 28 C-32.66666667 26.66666667 -31.33333333 25.33333333 -30 24 C-29.03572241 22.85916454 -28.07783753 21.71290751 -27.125 20.5625 C-24.35768166 17.30275159 -21.35226072 14.66812588 -18 12 C-16.70427578 10.90059763 -15.41263343 9.79636742 -14.125 8.6875 C-13.52945313 8.17574219 -12.93390625 7.66398437 -12.3203125 7.13671875 C-11.66675781 6.57404297 -11.66675781 6.57404297 -11 6 C-11.495 4.515 -11.495 4.515 -12 3 C-13.98 3 -15.96 3 -18 3 C-18.33 4.32 -18.66 5.64 -19 7 C-19.66 7 -20.32 7 -21 7 C-21 6.34 -21 5.68 -21 5 C-21.99 5 -22.98 5 -24 5 C-24.33 6.32 -24.66 7.64 -25 9 C-25.495 7.515 -25.495 7.515 -26 6 C-27.32 6.66 -28.64 7.32 -30 8 C-30 7.34 -30 6.68 -30 6 C-36.17555864 7.2409515 -42.05977027 8.91256987 -48 11 C-48.99 11.33 -49.98 11.66 -51 12 C-51.33 13.65 -51.66 15.3 -52 17 C-53.485 16.505 -53.485 16.505 -55 16 C-55 15.34 -55 14.68 -55 14 C-57.97 15.65 -60.94 17.3 -64 19 C-64 19.99 -64 20.98 -64 22 C-65.134375 22.28875 -66.26875 22.5775 -67.4375 22.875 C-68.613125 23.24625 -69.78875 23.6175 -71 24 C-71.33 24.66 -71.66 25.32 -72 26 C-72.680625 26.226875 -73.36125 26.45375 -74.0625 26.6875 C-78.34568595 28.60126394 -81.94230607 31.4350718 -85 35 C-85.3599502 36.66112153 -85.69743256 38.32747442 -86 40 C-87.66666667 40.66666667 -89.33333333 41.33333333 -91 42 C-91.76956136 44.34533951 -91.76956136 44.34533951 -92 47 C-92.8125 49.75 -92.8125 49.75 -94 52 C-96.125 52.8125 -96.125 52.8125 -98 53 C-97.67 53.99 -97.34 54.98 -97 56 C-98.11375 57.0209375 -98.11375 57.0209375 -99.25 58.0625 C-102.25333468 61.05735068 -103.99982474 64.26633951 -106 68 C-106.5775 68.928125 -107.155 69.85625 -107.75 70.8125 C-109.16537965 72.86950512 -109.16537965 72.86950512 -109 75 C-109.66 75 -110.32 75 -111 75 C-111 75.99 -111 76.98 -111 78 C-110.34 78 -109.68 78 -109 78 C-109.33 79.32 -109.66 80.64 -110 82 C-110.66 82 -111.32 82 -112 82 C-112 82.99 -112 83.98 -112 85 C-111.34 85.33 -110.68 85.66 -110 86 C-110.99 87.65 -111.98 89.3 -113 91 C-112.34 91.33 -111.68 91.66 -111 92 C-111.99 92.495 -111.99 92.495 -113 93 C-113.61067144 94.85744207 -113.61067144 94.85744207 -114 97 C-114.17015625 97.54269531 -114.3403125 98.08539063 -114.515625 98.64453125 C-115.21471837 102.04415464 -115.18433005 105.41975041 -115.1875 108.875 C-115.19974609 109.56980469 -115.21199219 110.26460938 -115.22460938 110.98046875 C-115.23702874 115.37692393 -114.61908407 118.91709235 -113 123 C-114.485 123.495 -114.485 123.495 -116 124 C-116.73323796 126.01508358 -116.73323796 126.01508358 -117 128 C-122.93138316 101.78191331 -115.81815951 72.84456959 -102.125 50.27734375 C-96.09630596 40.97941305 -86.03128943 26.5117594 -75 23 C-75 22.34 -75 21.68 -75 21 C-52.42496715 4.86558788 -27.24066866 -0.12133928 0 0 Z " fill="#3681B8" transform="translate(229,79)"/>
<path d="M0 0 C6.15657505 3.440439 11.10064811 7.9717178 16 13 C16.70125 13.680625 17.4025 14.36125 18.125 15.0625 C23 20.1 23 20.1 23 23 C23.66 23 24.32 23 25 23 C25.84069415 24.60032137 26.67231505 26.20541171 27.5 27.8125 C27.9640625 28.70582031 28.428125 29.59914063 28.90625 30.51953125 C30 33 30 33 30 36 C30.66 36 31.32 36 32 36 C35.78237648 46.09790417 38.6491979 55.22887858 38.89453125 66.05859375 C38.86376059 69.06133175 38.86376059 69.06133175 40 72 C39.68143549 74.00240549 39.34578768 76.00211562 39 78 C39 79.175625 39 80.35125 39 81.5625 C39 84.57064141 38.70510883 87.09142608 38 90 C37.67 90 37.34 90 37 90 C37 83.07 37 76.14 37 69 C36.34 69 35.68 69 35 69 C34.67 63.39 34.34 57.78 34 52 C33.34 52 32.68 52 32 52 C31.81566406 51.16339844 31.63132812 50.32679688 31.44140625 49.46484375 C28.89482818 39.2445771 24.59575003 28.59575003 17 21 C15.06136455 20.87440591 15.06136455 20.87440591 13 22 C10.667376 24.54961228 8.55074217 26.89851567 7 30 C6.34 29.01 5.68 28.02 5 27 C4.01 26.67 3.02 26.34 2 26 C1.3125 23.9375 1.3125 23.9375 1 22 C2.98 22.33 4.96 22.66 7 23 C7.33 21.68 7.66 20.36 8 19 C8.66 19 9.32 19 10 19 C10 17.68 10 16.36 10 15 C10.66 15 11.32 15 12 15 C9.1847246 10.97675182 6.49619164 7.19430194 2.625 4.125 C1.75875 3.42375 0.8925 2.7225 0 2 C0 1.34 0 0.68 0 0 Z " fill="#8FAAB9" transform="translate(277,267)"/>
<path d="M0 0 C24.77626887 -0.20638953 24.77626887 -0.20638953 36 1 C35.34 1.66 34.68 2.32 34 3 C32 3 30 3 28 3 C25.79932579 3.93283296 25.79932579 3.93283296 24 5 C23.34 5 22.68 5 22 5 C12.53112881 6.13469944 2.93688237 9.70874508 -5 15 C-7.07378757 16.10602004 -9.03729276 17.01223869 -11.2734375 17.74609375 C-14.65904756 19.30308634 -17.08785111 21.51899601 -19.75 24.0625 C-20.27368164 24.55637207 -20.79736328 25.05024414 -21.33691406 25.55908203 C-22.39836618 26.56386724 -23.45667894 27.57197995 -24.51171875 28.58349609 C-25.82299275 29.83152952 -27.15966647 31.05275972 -28.5 32.26953125 C-37.47583475 40.66879328 -43.40597862 51.29182399 -47.5 62.8125 C-47.9228125 63.99457031 -48.345625 65.17664063 -48.78125 66.39453125 C-49.969804 69.91067018 -51.01099345 73.42400874 -52 77 C-52.33 77 -52.66 77 -53 77 C-53.36147015 71.00762821 -52.1235453 66.27294303 -50.1875 60.625 C-49.92646484 59.80644531 -49.66542969 58.98789063 -49.39648438 58.14453125 C-49.00493164 56.97857422 -49.00493164 56.97857422 -48.60546875 55.7890625 C-48.36981201 55.08475098 -48.13415527 54.38043945 -47.89135742 53.65478516 C-47 52 -47 52 -44 51 C-43.08710716 48.92985693 -43.08710716 48.92985693 -42.5 46.5 C-41.84375 44.03125 -41.84375 44.03125 -41 42 C-39.515 41.505 -39.515 41.505 -38 41 C-37.70867187 40.10539062 -37.41734375 39.21078125 -37.1171875 38.2890625 C-35.78907201 34.3790162 -33.95622223 32.35744478 -31.125 29.375 C-30.26132813 28.45460938 -29.39765625 27.53421875 -28.5078125 26.5859375 C-27.68023437 25.73257813 -26.85265625 24.87921875 -26 24 C-25.32710937 23.28070313 -24.65421875 22.56140625 -23.9609375 21.8203125 C-21.9117164 19.91804749 -19.98710444 18.76058718 -17.5 17.5 C-14.84507708 16.09038294 -13.01484268 15.01484268 -10.875 12.875 C-6.27527229 8.27527229 1.19341623 6.96320638 7.3125 5.3125 C8.12267578 5.08755859 8.93285156 4.86261719 9.76757812 4.63085938 C15.7209584 3 15.7209584 3 18 3 C18 2.34 18 1.68 18 1 C12.06 1 6.12 1 0 1 C0 0.67 0 0.34 0 0 Z " fill="#BAD5E2" transform="translate(246,79)"/>
<path d="M0 0 C0.763125 0.0825 1.52625 0.165 2.3125 0.25 C2.6425 0.91 2.9725 1.57 3.3125 2.25 C1.14451268 7.7270206 1.14451268 7.7270206 -1.875 9.625 C-2.473125 9.83125 -3.07125 10.0375 -3.6875 10.25 C-3.3575 11.24 -3.0275 12.23 -2.6875 13.25 C-3.43 13.930625 -4.1725 14.61125 -4.9375 15.3125 C-7.94083468 18.30735068 -9.68732474 21.51633951 -11.6875 25.25 C-12.265 26.178125 -12.8425 27.10625 -13.4375 28.0625 C-14.85287965 30.11950512 -14.85287965 30.11950512 -14.6875 32.25 C-15.3475 32.25 -16.0075 32.25 -16.6875 32.25 C-16.6875 33.24 -16.6875 34.23 -16.6875 35.25 C-16.0275 35.25 -15.3675 35.25 -14.6875 35.25 C-15.0175 36.57 -15.3475 37.89 -15.6875 39.25 C-16.3475 39.25 -17.0075 39.25 -17.6875 39.25 C-17.6875 40.24 -17.6875 41.23 -17.6875 42.25 C-17.0275 42.58 -16.3675 42.91 -15.6875 43.25 C-17.1725 45.725 -17.1725 45.725 -18.6875 48.25 C-18.0275 48.58 -17.3675 48.91 -16.6875 49.25 C-17.6775 49.745 -17.6775 49.745 -18.6875 50.25 C-19.29817144 52.10744207 -19.29817144 52.10744207 -19.6875 54.25 C-19.85765625 54.79269531 -20.0278125 55.33539063 -20.203125 55.89453125 C-20.90221837 59.29415464 -20.87183005 62.66975041 -20.875 66.125 C-20.88724609 66.81980469 -20.89949219 67.51460938 -20.91210938 68.23046875 C-20.92452874 72.62692393 -20.30658407 76.16709235 -18.6875 80.25 C-20.1725 80.745 -20.1725 80.745 -21.6875 81.25 C-22.42073796 83.26508358 -22.42073796 83.26508358 -22.6875 85.25 C-29.0236806 57.24261491 -20.51377364 27.9277803 -5.6875 4.25 C-3.07063194 0.28564018 -3.07063194 0.28564018 0 0 Z " fill="#24629B" transform="translate(134.6875,121.75)"/>
<path d="M0 0 C1.65 0 3.3 0 5 0 C4.67 1.32 4.34 2.64 4 4 C3.34 4 2.68 4 2 4 C2 4.99 2 5.98 2 7 C2.66 7.33 3.32 7.66 4 8 C2.515 10.475 2.515 10.475 1 13 C1.66 13.33 2.32 13.66 3 14 C2.01 14.495 2.01 14.495 1 15 C0.38932856 16.85744207 0.38932856 16.85744207 0 19 C-0.17015625 19.54269531 -0.3403125 20.08539063 -0.515625 20.64453125 C-1.21471837 24.04415464 -1.18433005 27.41975041 -1.1875 30.875 C-1.19974609 31.56980469 -1.21199219 32.26460937 -1.22460938 32.98046875 C-1.23702874 37.37692393 -0.61908407 40.91709235 1 45 C-0.485 45.495 -0.485 45.495 -2 46 C-2.73323796 48.01508358 -2.73323796 48.01508358 -3 50 C-6.59268559 34.27210086 -5.08997164 15.26991493 0 0 Z " fill="#396696" transform="translate(115,157)"/>
<path d="M0 0 C0.66 0.33 1.32 0.66 2 1 C1.44282665 5.41701192 -0.21715089 8.14697246 -2.6875 11.8125 C-7.39822788 19.09001149 -10.29948478 26.79524994 -13 35 C-13.3609375 36.01449219 -13.721875 37.02898437 -14.09375 38.07421875 C-15.74690608 44.00682143 -15.74853747 50.32461245 -16.125 56.4375 C-16.21136719 57.74138672 -16.29773438 59.04527344 -16.38671875 60.38867188 C-16.59793181 63.59206992 -16.80214028 66.79575409 -17 70 C-17.33 70 -17.66 70 -18 70 C-18.86116705 58.97938928 -19.1857451 48.91277114 -17 38 C-16.84425579 36.66778798 -16.69652751 35.33457175 -16.5625 34 C-15.94939886 30.73012726 -14.76135515 28.78881233 -13 26 C-12.29329272 23.30745009 -12.29329272 23.30745009 -12 21 C-11.34 21 -10.68 21 -10 21 C-9.88785156 20.43539062 -9.77570313 19.87078125 -9.66015625 19.2890625 C-8.9148219 16.70464874 -7.79752881 14.69208612 -6.4375 12.375 C-4.54061061 9.37635351 -4.54061061 9.37635351 -4 6 C-3.34 6 -2.68 6 -2 6 C-2 4.68 -2 3.36 -2 2 C-1.34 2 -0.68 2 0 2 C0 1.34 0 0.68 0 0 Z " fill="#3078AE" transform="translate(194,107)"/>
<path d="M0 0 C0.99386719 0.10183594 1.98773438 0.20367187 3.01171875 0.30859375 C3.77097656 0.39238281 4.53023437 0.47617187 5.3125 0.5625 C5.3125 2.2125 5.3125 3.8625 5.3125 5.5625 C2.30218256 6.49673645 1.44599732 6.60699911 -1.6875 5.5625 C-2.85826699 9.54310777 -3.94499403 13.47871717 -4.6875 17.5625 C-5.3475 17.5625 -6.0075 17.5625 -6.6875 17.5625 C-8.69917675 11.77892935 -8.90834624 6.66031001 -8.6875 0.5625 C-5.3763987 -0.54120043 -3.44001051 -0.36423641 0 0 Z " fill="#293873" transform="translate(121.6875,329.4375)"/>
<path d="M0 0 C3.88380565 2.18254208 5.70339757 5.20934342 8.0859375 8.8984375 C8.54871094 9.57132812 9.01148438 10.24421875 9.48828125 10.9375 C9.92011719 11.59234375 10.35195313 12.2471875 10.796875 12.921875 C11.1892334 13.51661621 11.5815918 14.11135742 11.98583984 14.72412109 C12.91045615 17.01853933 12.51127957 18.2308895 11.7109375 20.5234375 C11.22882813 19.68039062 10.74671875 18.83734375 10.25 17.96875 C9.61835938 16.87304688 8.98671875 15.77734375 8.3359375 14.6484375 C7.70945312 13.55789063 7.08296875 12.46734375 6.4375 11.34375 C4.85452299 8.51110407 4.85452299 8.51110407 2.7109375 6.5234375 C0.77230205 6.39784341 0.77230205 6.39784341 -1.2890625 7.5234375 C-3.6216865 10.07304978 -5.73832033 12.42195317 -7.2890625 15.5234375 C-7.9490625 14.5334375 -8.6090625 13.5434375 -9.2890625 12.5234375 C-10.2790625 12.1934375 -11.2690625 11.8634375 -12.2890625 11.5234375 C-12.9765625 9.4609375 -12.9765625 9.4609375 -13.2890625 7.5234375 C-10.3190625 8.0184375 -10.3190625 8.0184375 -7.2890625 8.5234375 C-6.9590625 7.2034375 -6.6290625 5.8834375 -6.2890625 4.5234375 C-5.6290625 4.5234375 -4.9690625 4.5234375 -4.2890625 4.5234375 C-4.2890625 3.2034375 -4.2890625 1.8834375 -4.2890625 0.5234375 C-2.2890625 -0.4765625 -2.2890625 -0.4765625 0 0 Z " fill="#6DB4D9" transform="translate(291.2890625,281.4765625)"/>
<path d="M0 0 C0.66 0.33 1.32 0.66 2 1 C-2.12010266 5.95699851 -6.30308967 10.29757748 -11.3984375 14.26171875 C-13.39807351 16.43205539 -13.50100461 18.14254529 -14 21 C-17.16538759 22.75854866 -20.44939392 23.39132467 -24 24 C-21.11613541 19.38028406 -17.9199757 15.58339658 -14.0625 11.75 C-13.55009766 11.22148438 -13.03769531 10.69296875 -12.50976562 10.1484375 C-9.54963291 7.1845435 -7.02950362 5.21701399 -3 4 C-3 3.34 -3 2.68 -3 2 C-2.01 1.34 -1.02 0.68 0 0 Z " fill="#4E86B3" transform="translate(157,98)"/>
<path d="M0 0 C0.33 0.99 0.66 1.98 1 3 C1.556875 2.649375 2.11375 2.29875 2.6875 1.9375 C5.53886783 0.78154007 7.08517222 1.19032562 10 2 C9.01 2.495 9.01 2.495 8 3 C8 3.66 8 4.32 8 5 C8.99 4.67 9.98 4.34 11 4 C11.433125 5.175625 11.433125 5.175625 11.875 6.375 C12.84912254 9.09671632 12.84912254 9.09671632 15 11 C14.625 13.125 14.625 13.125 14 15 C14.99 15 15.98 15 17 15 C16.67 15.99 16.34 16.98 16 18 C1.2037037 7.61111111 1.2037037 7.61111111 -1 1 C-0.67 0.67 -0.34 0.34 0 0 Z " fill="#456492" transform="translate(132,248)"/>
<path d="M0 0 C0.33 0 0.66 0 1 0 C1.04898438 0.88042969 1.09796875 1.76085937 1.1484375 2.66796875 C1.22320312 3.82941406 1.29796875 4.99085938 1.375 6.1875 C1.44460937 7.33605469 1.51421875 8.48460937 1.5859375 9.66796875 C1.98185854 12.85401255 2.8178805 15.04921315 4 18 C4.49351693 21.24555922 4.87492745 24.47267498 5.2109375 27.73632812 C5.59871207 31.80594127 5.59871207 31.80594127 8 35 C8.6328125 37.1640625 8.6328125 37.1640625 9.125 39.625 C9.29257813 40.44226563 9.46015625 41.25953125 9.6328125 42.1015625 C9.75398437 42.72804687 9.87515625 43.35453125 10 44 C-0.25815956 31.6194626 -1.66914619 19.11295734 -0.359375 3.62890625 C-0.24078125 2.43136719 -0.1221875 1.23382813 0 0 Z " fill="#A2BDCB" transform="translate(192,163)"/>
<path d="M0 0 C0 0.66 0 1.32 0 2 C-1.98 2.66 -3.96 3.32 -6 4 C-6 4.33 -6 4.66 -6 5 C-7.01320312 5.10957031 -8.02640625 5.21914062 -9.0703125 5.33203125 C-10.42194461 5.49159893 -11.77350343 5.65178833 -13.125 5.8125 C-14.12273437 5.91788086 -14.12273437 5.91788086 -15.140625 6.02539062 C-18.57535145 6.44631298 -21.13855973 7.06994762 -24.2421875 8.63671875 C-27 10 -27 10 -29.375 9.6875 C-29.91125 9.460625 -30.4475 9.23375 -31 9 C-24.6996417 5.74303512 -18.42725836 3.39113976 -11.5625 1.6875 C-10.87671875 1.51637695 -10.1909375 1.34525391 -9.484375 1.16894531 C-6.19459381 0.3886767 -3.40563127 0 0 0 Z " fill="#67A1C4" transform="translate(203,81)"/>
<path d="M0 0 C2.34945595 4.6989119 3.23249896 8.17169258 3.5 13.4375 C3.75598272 18.79429751 3.75598272 18.79429751 5 24 C4.68143549 26.00240549 4.34578768 28.00211562 4 30 C4 31.175625 4 32.35125 4 33.5625 C4 36.57064141 3.70510883 39.09142608 3 42 C2.67 42 2.34 42 2 42 C1.97494385 41.24904053 1.9498877 40.49808105 1.92407227 39.72436523 C1.80745058 36.29526467 1.68502583 32.86639447 1.5625 29.4375 C1.52318359 28.25607422 1.48386719 27.07464844 1.44335938 25.85742188 C1.23577562 20.15685263 0.88913369 14.63118003 0 9 C-0.06056151 7.35514934 -0.08781955 5.70827043 -0.0625 4.0625 C-0.05347656 3.29035156 -0.04445313 2.51820313 -0.03515625 1.72265625 C-0.02355469 1.15417969 -0.01195312 0.58570313 0 0 Z " fill="#8B98A0" transform="translate(312,315)"/>
<path d="M0 0 C24.77626887 -0.20638953 24.77626887 -0.20638953 36 1 C35.34 1.66 34.68 2.32 34 3 C32 3 30 3 28 3 C25.79932579 3.93283296 25.79932579 3.93283296 24 5 C23.34 5 22.68 5 22 5 C21.34 5.185625 20.68 5.37125 20 5.5625 C18 6 18 6 16 5 C16 4.34 16 3.68 16 3 C16.66 3 17.32 3 18 3 C18 2.34 18 1.68 18 1 C12.06 1 6.12 1 0 1 C0 0.67 0 0.34 0 0 Z " fill="#C7DBEA" transform="translate(246,79)"/>
<path d="M0 0 C0.99 0.33 1.98 0.66 3 1 C2.36191406 1.55429687 1.72382813 2.10859375 1.06640625 2.6796875 C0.24011719 3.40414063 -0.58617187 4.12859375 -1.4375 4.875 C-2.26121094 5.59429687 -3.08492188 6.31359375 -3.93359375 7.0546875 C-6.05982155 8.83238745 -6.05982155 8.83238745 -7 11 C-4.69 11 -2.38 11 0 11 C-2 13 -2 13 -4.8203125 13.1953125 C-5.91085937 13.17210937 -7.00140625 13.14890625 -8.125 13.125 C-9.22070312 13.10695313 -10.31640625 13.08890625 -11.4453125 13.0703125 C-12.28835938 13.04710937 -13.13140625 13.02390625 -14 13 C-14 12.01 -14 11.02 -14 10 C-11.953125 8.28125 -11.953125 8.28125 -9.25 6.5 C-8.36828125 5.9121875 -7.4865625 5.324375 -6.578125 4.71875 C-5.72734375 4.1515625 -4.8765625 3.584375 -4 3 C-2.94039063 2.11828125 -2.94039063 2.11828125 -1.859375 1.21875 C-1.24578125 0.8165625 -0.6321875 0.414375 0 0 Z " fill="#73787F" transform="translate(277,420)"/>
<path d="M0 0 C0.93779297 0.00322266 1.87558594 0.00644531 2.84179688 0.00976562 C4.30649414 0.02233398 4.30649414 0.02233398 5.80078125 0.03515625 C7.28288086 0.04192383 7.28288086 0.04192383 8.79492188 0.04882812 C11.23443599 0.06061322 13.67382814 0.07706614 16.11328125 0.09765625 C16.11328125 0.75765625 16.11328125 1.41765625 16.11328125 2.09765625 C13.6792112 2.96290378 11.24184941 3.8150849 8.80078125 4.66015625 C8.11048828 4.90701172 7.42019531 5.15386719 6.70898438 5.40820312 C1.453125 7.2109375 1.453125 7.2109375 -1.88671875 6.09765625 C0.09328125 5.10765625 2.07328125 4.11765625 4.11328125 3.09765625 C2.87578125 2.95328125 1.63828125 2.80890625 0.36328125 2.66015625 C-2.45176374 2.31077123 -5.15686845 1.89386259 -7.88671875 1.09765625 C-4.94539984 0.11721661 -3.0617021 -0.01855577 0 0 Z " fill="#95CAE6" transform="translate(247.88671875,79.90234375)"/>
<path d="M0 0 C2.26181561 4.05975586 2.366744 7.81294181 2.5 12.375 C2.65525608 17.6354412 3.04313277 22.02892598 5 27 C4.01 27.33 3.02 27.66 2 28 C1.26676204 30.01508358 1.26676204 30.01508358 1 32 C0.09183202 28.13792926 -0.11643845 24.56851344 -0.09765625 20.60546875 C-0.09443359 19.40341797 -0.09121094 18.20136719 -0.08789062 16.96289062 C-0.07951172 15.71701172 -0.07113281 14.47113281 -0.0625 13.1875 C-0.05798828 11.92228516 -0.05347656 10.65707031 -0.04882812 9.35351562 C-0.03706251 6.2356289 -0.02062272 3.11783867 0 0 Z " fill="#567398" transform="translate(111,175)"/>
<path d="M0 0 C0.33 0 0.66 0 1 0 C3.41817494 9.9336539 3.41817494 9.9336539 1.75 14.1875 C1.1725 14.785625 0.595 15.38375 0 16 C-0.66 16 -1.32 16 -2 16 C-2.061875 17.093125 -2.12375 18.18625 -2.1875 19.3125 C-3 23 -3 23 -5.4375 24.9375 C-8 26 -8 26 -10 26 C-10 26.66 -10 27.32 -10 28 C-11.32 27.67 -12.64 27.34 -14 27 C-12.39125 25.9790625 -12.39125 25.9790625 -10.75 24.9375 C-5.20254018 20.9702257 -2.70430275 15.55501059 -1 9 C-0.57166836 6.00660185 -0.25441917 3.01285863 0 0 Z " fill="#5C7299" transform="translate(240,340)"/>
<path d="M0 0 C0.33 0 0.66 0 1 0 C0.56264212 5.20225686 -0.03015603 10.30601212 -1 15.4375 C-2.48314841 23.88259134 -2.66006839 32.44803635 -3 41 C-3.33 41 -3.66 41 -4 41 C-4.86100712 29.98143595 -5.19158174 19.91026562 -3 9 C-2.82298904 7.60544072 -2.65429806 6.20975466 -2.5 4.8125 C-2 2 -2 2 0 0 Z " fill="#3A74A4" transform="translate(180,136)"/>
<path d="M0 0 C0.66 0.33 1.32 0.66 2 1 C1.34 1.66 0.68 2.32 0 3 C-1.32 3 -2.64 3 -4 3 C-4.33 4.65 -4.66 6.3 -5 8 C-14.405 8.495 -14.405 8.495 -24 9 C-20.54293257 6.69528838 -17.06099836 5.67016167 -13.125 4.5 C-11.71035958 4.07483485 -10.29628197 3.64779194 -8.8828125 3.21875 C-8.21411133 3.01636719 -7.54541016 2.81398438 -6.85644531 2.60546875 C-4.80382833 1.96498262 -4.80382833 1.96498262 -2.1171875 0.78125 C-1.41851562 0.5234375 -0.71984375 0.265625 0 0 Z " fill="#8CB4DA" transform="translate(245,423)"/>
<path d="M0 0 C0.99 0.33 1.98 0.66 3 1 C3 7.6 3 14.2 3 21 C2.34 21 1.68 21 1 21 C-0.11165232 16.5621439 -0.11527763 12.23043614 -0.0625 7.6875 C-0.05798828 6.94693359 -0.05347656 6.20636719 -0.04882812 5.44335938 C-0.03712175 3.62887101 -0.01918898 1.81442466 0 0 Z " fill="#BEBEBE" transform="translate(378,312)"/>
<path d="M0 0 C0.33 0.66 0.66 1.32 1 2 C1.66 2 2.32 2 3 2 C5.19671115 7.85789639 4.88178944 11.0410001 3 17 C-0.53645185 13.46354815 -0.92431929 8.38747961 -1.1875 3.5625 C-1 1 -1 1 0 0 Z " fill="#456595" transform="translate(114,206)"/>
<path d="M0 0 C0.33 0 0.66 0 1 0 C1.33 6.6 1.66 13.2 2 20 C2.66 20.33 3.32 20.66 4 21 C3.67 24.3 3.34 27.6 3 31 C-0.68456245 27.31543755 -0.05940415 22.33930762 -0.09765625 17.3828125 C-0.09105511 15.29685253 -0.0791975 13.21090359 -0.0625 11.125 C-0.05798828 10.05507812 -0.05347656 8.98515625 -0.04882812 7.8828125 C-0.03709749 5.25515014 -0.02068228 2.62760462 0 0 Z " fill="#82BADD" transform="translate(177,158)"/>
<path d="M0 0 C0.66 0.33 1.32 0.66 2 1 C2 3.125 2 3.125 1 6 C-2.54666562 9.39246277 -6.1194475 12.07872717 -11 13 C-9.4371028 8.78017757 -6.41133255 6.78476126 -3 4 C-1.1873495 1.83779383 -1.1873495 1.83779383 0 0 Z " fill="#243D71" transform="translate(268,403)"/>
<path d="M0 0 C0.66 0.33 1.32 0.66 2 1 C2.27918509 5.8392082 2.25261627 8.34080669 -1 12 C-1 12.66 -1 13.32 -1 14 C-1.66 14 -2.32 14 -3 14 C-3 14.99 -3 15.98 -3 17 C-3.99 17 -4.98 17 -6 17 C-4.33846988 11.14340094 -2.52958084 5.5409866 0 0 Z " fill="#5C85A9" transform="translate(121,140)"/>
<path d="M0 0 C0.78503906 0.20496094 1.57007813 0.40992188 2.37890625 0.62109375 C7.91017745 2.03954244 13.32370402 3.35496637 19 4 C19 4.33 19 4.66 19 5 C6.78939764 7.82451656 6.78939764 7.82451656 2 5 C0.84765625 2.41015625 0.84765625 2.41015625 0 0 Z " fill="#465683" transform="translate(198,367)"/>
<path d="M0 0 C-0.1875 1.875 -0.1875 1.875 -1 4 C-4.88779613 6.33267768 -7.68066349 6.00449686 -12 5 C-12 3.68 -12 2.36 -12 1 C-7.93631321 0.22596442 -4.13574827 -0.0984702 0 0 Z " fill="#1F336F" transform="translate(140,330)"/>
<path d="M0 0 C1.37303785 2.74607569 0.65296609 3.99937965 -0.14453125 6.9375 C-0.40943359 7.91460937 -0.67433594 8.89171875 -0.94726562 9.8984375 C-1.37555664 11.43371094 -1.37555664 11.43371094 -1.8125 13 C-2.08642578 14.02351562 -2.36035156 15.04703125 -2.64257812 16.1015625 C-4.7450381 23.7450381 -4.7450381 23.7450381 -7 26 C-7.38005037 19.96771118 -6.06745187 15.28658034 -4.0625 9.625 C-3.78470703 8.80644531 -3.50691406 7.98789063 -3.22070312 7.14453125 C-1.16205752 1.16205752 -1.16205752 1.16205752 0 0 Z " fill="#CEDADF" transform="translate(200,130)"/>
<path d="M0 0 C0.66 0.70125 1.32 1.4025 2 2.125 C2 1.465 2 0.805 2 0.125 C4.35171131 0.72361742 6.6859378 1.39424352 9 2.125 C9.33 2.785 9.66 3.445 10 4.125 C2.77875787 3.70669634 -4.04567778 3.17038889 -11 1.125 C-11 0.795 -11 0.465 -11 0.125 C-3.73846154 -2.33653846 -3.73846154 -2.33653846 0 0 Z " fill="#5D628F" transform="translate(199,427.875)"/>
<path d="M0 0 C0.99 0.33 1.98 0.66 3 1 C2.21753906 1.83144531 1.43507813 2.66289062 0.62890625 3.51953125 C-0.39347943 4.61695441 -1.41560113 5.71462352 -2.4375 6.8125 C-2.95376953 7.35970703 -3.47003906 7.90691406 -4.00195312 8.47070312 C-6.31076605 10.96059942 -7.91358514 12.74075542 -9 16 C-11.5625 17.1875 -11.5625 17.1875 -14 18 C-12.68761832 15.15741394 -11.23292824 12.90591755 -9.1796875 10.546875 C-8.64472656 9.928125 -8.10976563 9.309375 -7.55859375 8.671875 C-7.00300781 8.03765625 -6.44742187 7.4034375 -5.875 6.75 C-5.31167969 6.1003125 -4.74835938 5.450625 -4.16796875 4.78125 C-2.78235636 3.184273 -1.39167246 1.59169878 0 0 Z " fill="#7E868A" transform="translate(296,400)"/>
<path d="M0 0 C0 0.99 0 1.98 0 3 C-1.98 3.99 -1.98 3.99 -4 5 C-4 4.34 -4 3.68 -4 3 C-10.93 2.67 -17.86 2.34 -25 2 C-25 1.67 -25 1.34 -25 1 C-22.33349537 0.83031334 -19.66684474 0.66418179 -17 0.5 C-16.25621094 0.45230469 -15.51242188 0.40460938 -14.74609375 0.35546875 C-9.82037776 0.05564256 -4.93485224 -0.04486229 0 0 Z " fill="#6B9FCA" transform="translate(229,79)"/>
<path d="M0 0 C0.6875 1.75 0.6875 1.75 1 4 C-0.4375 6.25 -0.4375 6.25 -2 8 C-2 7.34 -2 6.68 -2 6 C-4.97 5.01 -7.94 4.02 -11 3 C-6.75707862 0.87853931 -4.7245591 0 0 0 Z " fill="#3C5083" transform="translate(228,368)"/>
<path d="M0 0 C1.65 0 3.3 0 5 0 C5.33 0.66 5.66 1.32 6 2 C4.40382422 5.83082186 3.50015029 7.66656647 0 10 C0.33 8.68 0.66 7.36 1 6 C-0.32 6 -1.64 6 -3 6 C-2 4 -1 2 0 0 Z " fill="#3B76AA" transform="translate(132,122)"/>
<path d="M0 0 C0.66 0.33 1.32 0.66 2 1 C-5.53210733 10.13837805 -5.53210733 10.13837805 -10 12 C-10.99 11.67 -11.98 11.34 -13 11 C-11.71372289 9.82739389 -10.42080217 8.6620717 -9.125 7.5 C-8.40570313 6.8503125 -7.68640625 6.200625 -6.9453125 5.53125 C-5 4 -5 4 -3 4 C-3 3.34 -3 2.68 -3 2 C-2.01 1.34 -1.02 0.68 0 0 Z " fill="#608FB7" transform="translate(157,98)"/>
<path d="M0 0 C0.66 0.99 1.32 1.98 2 3 C2.8353125 3.9590625 2.8353125 3.9590625 3.6875 4.9375 C5 7 5 7 4.6875 9.25 C4.460625 9.8275 4.23375 10.405 4 11 C4.99 11 5.98 11 7 11 C6.67 11.99 6.34 12.98 6 14 C4.02 12.68 2.04 11.36 0 10 C0.33 9.01 0.66 8.02 1 7 C0.01 6.34 -0.98 5.68 -2 5 C-2 3.68 -2 2.36 -2 1 C-1.34 0.67 -0.68 0.34 0 0 Z " fill="#33588E" transform="translate(142,252)"/>
<path d="M0 0 C0.99 0.495 0.99 0.495 2 1 C2.33 1.99 2.66 2.98 3 4 C3.99 4.66 4.98 5.32 6 6 C6.33 6.99 6.66 7.98 7 9 C8.53419823 10.26512204 8.53419823 10.26512204 10.375 11.375 C13.54375183 13.51569682 15.30250031 15.50514769 17 19 C12.73176286 18.52575143 10.82507269 16.04238597 8 13 C7.4225 12.46375 6.845 11.9275 6.25 11.375 C5 10 5 10 4 7 C3.319375 6.525625 2.63875 6.05125 1.9375 5.5625 C1.298125 5.046875 0.65875 4.53125 0 4 C0 2.68 0 1.36 0 0 Z " fill="#83B6CF" transform="translate(202,207)"/>
<path d="M0 0 C0.66 0.33 1.32 0.66 2 1 C1.34 2.32 0.68 3.64 0 5 C-0.99 5 -1.98 5 -3 5 C-3.226875 5.556875 -3.45375 6.11375 -3.6875 6.6875 C-5.35896766 9.63246684 -7.55276352 11.68156544 -10 14 C-10.99 13.67 -11.98 13.34 -13 13 C-8.71 8.71 -4.42 4.42 0 0 Z " fill="#9FD4F3" transform="translate(216,89)"/>
<path d="M0 0 C4.06362211 2.27084765 7.49431172 4.94184639 11 8 C11.804375 8.680625 12.60875 9.36125 13.4375 10.0625 C13.953125 10.701875 14.46875 11.34125 15 12 C14.59765625 14.12109375 14.59765625 14.12109375 14 16 C13.40832031 15.32453125 12.81664062 14.6490625 12.20703125 13.953125 C11.41683594 13.06109375 10.62664062 12.1690625 9.8125 11.25 C9.03519531 10.36828125 8.25789063 9.4865625 7.45703125 8.578125 C5.05679437 5.93704776 5.05679437 5.93704776 2.19921875 3.796875 C1.47347656 3.20390625 0.74773437 2.6109375 0 2 C0 1.34 0 0.68 0 0 Z " fill="#8DA9B5" transform="translate(277,267)"/>
<path d="M0 0 C3.11558244 2.94830284 5.59037969 6.06152037 8.0625 9.5625 C10.21382266 12.60573379 12.25932113 15.4642317 15 18 C11.45176068 18 10.58072903 17.32265612 8 15 C7.67 14.01 7.34 13.02 7 12 C6.01 11.34 5.02 10.68 4 10 C2.83203125 8.125 2.83203125 8.125 1.8125 6 C1.46832031 5.29875 1.12414062 4.5975 0.76953125 3.875 C0 2 0 2 0 0 Z " fill="#91AAB6" transform="translate(200,201)"/>
<path d="M0 0 C0 0.99 0 1.98 0 3 C-1.134375 3.28875 -2.26875 3.5775 -3.4375 3.875 C-4.613125 4.24625 -5.78875 4.6175 -7 5 C-7.33 5.66 -7.66 6.32 -8 7 C-8.66 6.34 -9.32 5.68 -10 5 C-5.03424658 -1.67808219 -5.03424658 -1.67808219 0 0 Z " fill="#2B76B1" transform="translate(165,98)"/>
<path d="M0 0 C0.66 0 1.32 0 2 0 C0 6 -2 12 -4 18 C-4.33 18 -4.66 18 -5 18 C-5.08159574 13.83861737 -4.98248524 10.0527516 -4 6 C-3.34 6 -2.68 6 -2 6 C-1.7834375 5.071875 -1.7834375 5.071875 -1.5625 4.125 C-1 2 -1 2 0 0 Z " fill="#3C7BAB" transform="translate(186,122)"/>
<path d="M0 0 C-0.33 0.99 -0.66 1.98 -1 3 C-1.66 3 -2.32 3 -3 3 C-3 2.34 -3 1.68 -3 1 C-3.99 1 -4.98 1 -6 1 C-6.33 2.32 -6.66 3.64 -7 5 C-7.33 4.01 -7.66 3.02 -8 2 C-9.98 2.99 -9.98 2.99 -12 4 C-12 3.34 -12 2.68 -12 2 C-12.99 1.67 -13.98 1.34 -15 1 C-12.62185747 -0.18907126 -10.70522169 -0.3533546 -8.0625 -0.625 C-7.18722656 -0.72039062 -6.31195313 -0.81578125 -5.41015625 -0.9140625 C-3 -1 -3 -1 0 0 Z " fill="#277BBB" transform="translate(211,83)"/>
<path d="M0 0 C2.475 0.99 2.475 0.99 5 2 C5 2.66 5 3.32 5 4 C5.66 4.33 6.32 4.66 7 5 C6.67 5.66 6.34 6.32 6 7 C6.66 7 7.32 7 8 7 C8 7.66 8 8.32 8 9 C7.01 9 6.02 9 5 9 C4.67 9.66 4.34 10.32 4 11 C3.32880451 9.5437455 2.66318193 8.08492133 2 6.625 C1.62875 5.81289063 1.2575 5.00078125 0.875 4.1640625 C0 2 0 2 0 0 Z " fill="#4D5484" transform="translate(120,365)"/>
<path d="M0 0 C0 0.66 0 1.32 0 2 C-1.98 2.66 -3.96 3.32 -6 4 C-6 4.33 -6 4.66 -6 5 C-7.98 5.33 -9.96 5.66 -12 6 C-12.33 4.68 -12.66 3.36 -13 2 C-11.58461283 1.66127487 -10.16762037 1.32925376 -8.75 1 C-7.56664062 0.7215625 -7.56664062 0.7215625 -6.359375 0.4375 C-4 0 -4 0 0 0 Z " fill="#5393BD" transform="translate(203,81)"/>
<path d="M0 0 C0.33 0.99 0.66 1.98 1 3 C0.34 3 -0.32 3 -1 3 C-0.90460938 3.61488281 -0.80921875 4.22976563 -0.7109375 4.86328125 C-0.60007812 5.67152344 -0.48921875 6.47976563 -0.375 7.3125 C-0.25898437 8.11300781 -0.14296875 8.91351563 -0.0234375 9.73828125 C0 12 0 12 -2 15 C-2.93619813 11.84493858 -3.1057123 9.03413498 -3.0625 5.75 C-3.05347656 4.85796875 -3.04445313 3.9659375 -3.03515625 3.046875 C-3.02355469 2.37140625 -3.01195313 1.6959375 -3 1 C-2.01 0.67 -1.02 0.34 0 0 Z " fill="#666E97" transform="translate(116,329)"/>
<path d="M0 0 C0.66 0 1.32 0 2 0 C3.83407845 2.3822279 5.52377853 4.75326404 7.1875 7.25 C7.66380859 7.93191406 8.14011719 8.61382812 8.63085938 9.31640625 C9.07623047 9.98027344 9.52160156 10.64414062 9.98046875 11.328125 C10.39192139 11.9355957 10.80337402 12.54306641 11.22729492 13.16894531 C12.20687435 15.49022359 11.82431351 16.66942629 11 19 C10.54109375 18.19175781 10.0821875 17.38351562 9.609375 16.55078125 C8.68898438 14.94783203 8.68898438 14.94783203 7.75 13.3125 C7.14671875 12.25675781 6.5434375 11.20101563 5.921875 10.11328125 C4.07134768 6.9699248 4.07134768 6.9699248 1.765625 4.23046875 C0 2 0 2 0 0 Z " fill="#76AECA" transform="translate(292,283)"/>
<path d="M0 0 C8.19256018 1.17286652 8.19256018 1.17286652 11.5625 4.625 C12.2740625 5.800625 12.2740625 5.800625 13 7 C12.67 7.66 12.34 8.32 12 9 C10.18381144 7.88096454 8.37214474 6.75458716 6.5625 5.625 C5.55316406 4.99851562 4.54382813 4.37203125 3.50390625 3.7265625 C1 2 1 2 0 0 Z " fill="#566E96" transform="translate(148,266)"/>
<path d="M0 0 C2.86476895 0.63661532 4.56043256 1.36795116 6.2578125 3.80859375 C7.33945344 5.86976268 8.32048955 7.77173522 9 10 C8.67 10.99 8.34 11.98 8 13 C7.03874097 11.58531689 6.08111675 10.1681636 5.125 8.75 C4.32449219 7.56664062 4.32449219 7.56664062 3.5078125 6.359375 C2.18177985 4.28444308 1.05071825 2.22385028 0 0 Z " fill="#647FA4" transform="translate(122,236)"/>
<path d="M0 0 C0.98161429 3.09075851 1.1115182 3.74350813 -0.25 6.875 C-0.8275 7.90625 -1.405 8.9375 -2 10 C-2.495 11.0725 -2.99 12.145 -3.5 13.25 C-5 16 -5 16 -8 18 C-6.65150163 13.64029169 -4.95092154 9.68658562 -2.875 5.625 C-2.33617187 4.56539063 -1.79734375 3.50578125 -1.2421875 2.4140625 C-0.83226562 1.61742187 -0.42234375 0.82078125 0 0 Z " fill="#83888D" transform="translate(308,378)"/>
<path d="M0 0 C7.57142857 4 7.57142857 4 10 8 C7.03 7.505 7.03 7.505 4 7 C4 6.34 4 5.68 4 5 C1.03 4.505 1.03 4.505 -2 4 C-1.34 2.68 -0.68 1.36 0 0 Z " fill="#C9E2EC" transform="translate(263,259)"/>
<path d="M0 0 C0.99 0.99 1.98 1.98 3 3 C2.21625 3.721875 1.4325 4.44375 0.625 5.1875 C-1.84412438 7.83299041 -2.93260278 9.60373611 -4 13 C-5.08557659 9.75784173 -4.94015194 7.97678191 -3.6875 4.8125 C-3.42324219 4.11769531 -3.15898437 3.42289063 -2.88671875 2.70703125 C-2 1 -2 1 0 0 Z " fill="#D1E8F4" transform="translate(188,125)"/>
<path d="M0 0 C0 1.65 0 3.3 0 5 C-1.75 5.6875 -1.75 5.6875 -4 6 C-6.25 4.6875 -6.25 4.6875 -8 3 C-8 2.34 -8 1.68 -8 1 C-5.23735711 0.40267181 -2.83967231 0 0 0 Z " fill="#21336F" transform="translate(127,330)"/>
<path d="M0 0 C4.85077588 1.11940982 7.777893 2.1334716 11 6 C10.67 6.66 10.34 7.32 10 8 C6.05205855 6.32971708 3.18203882 3.8204435 0 1 C0 0.67 0 0.34 0 0 Z " fill="#87BFE4" transform="translate(267,280)"/>
<path d="M0 0 C0 0.66 0 1.32 0 2 C-0.60328125 2.19335938 -1.2065625 2.38671875 -1.828125 2.5859375 C-2.62734375 2.84632812 -3.4265625 3.10671875 -4.25 3.375 C-5.03890625 3.63023438 -5.8278125 3.88546875 -6.640625 4.1484375 C-9.01167192 4.93432998 -9.01167192 4.93432998 -11.109375 6.1640625 C-13 7 -13 7 -16 6 C-10.72361792 2.23115566 -6.55361332 0 0 0 Z " fill="#C3D2DC" transform="translate(262,83)"/>
<path d="M0 0 C0.66 0 1.32 0 2 0 C2 0.99 2 1.98 2 3 C2.8971875 3.37125 2.8971875 3.37125 3.8125 3.75 C6.28647521 5.16370012 7.43370255 6.65055383 9 9 C8.67 9.66 8.34 10.32 8 11 C6.65499045 9.93119777 5.32428562 8.84437492 4 7.75 C3.2575 7.14671875 2.515 6.5434375 1.75 5.921875 C0 4 0 4 0 0 Z " fill="#569FCE" transform="translate(191,216)"/>
<path d="M0 0 C0.99 0.33 1.98 0.66 3 1 C4.1875 4.0625 4.1875 4.0625 5 7 C4.01 7.33 3.02 7.66 2 8 C1.26676204 10.01508358 1.26676204 10.01508358 1 12 C0.01751476 7.9472484 -0.08159574 4.16138263 0 0 Z " fill="#5B7DA1" transform="translate(111,195)"/>
<path d="M0 0 C0.66 0 1.32 0 2 0 C2.268125 0.680625 2.53625 1.36125 2.8125 2.0625 C3.7075762 4.27663586 4.67960367 6.45988937 5.6875 8.625 C7 12 7 12 6 15 C5.73445312 14.44570312 5.46890625 13.89140625 5.1953125 13.3203125 C4.84210938 12.59585938 4.48890625 11.87140625 4.125 11.125 C3.77695313 10.40570313 3.42890625 9.68640625 3.0703125 8.9453125 C2.03442457 6.84864981 2.03442457 6.84864981 0 5 C-0.125 2.375 -0.125 2.375 0 0 Z " fill="#81B5CE" transform="translate(195,192)"/>
<path d="M0 0 C0.66 0.33 1.32 0.66 2 1 C-0.89217759 5.69978858 -0.89217759 5.69978858 -4.046875 6.5546875 C-6.02330745 6.78597215 -8.01256369 6.90062818 -10 7 C-6.81404865 4.36021174 -3.69029454 1.89501612 0 0 Z " fill="#6899C1" transform="translate(169,91)"/>
<path d="M0 0 C0 0.99 0 1.98 0 3 C-0.99 2.67 -1.98 2.34 -3 2 C-4.32 2 -5.64 2 -7 2 C-9.00401011 1.69169075 -11.00511766 1.36270588 -13 1 C-13 0.67 -13 0.34 -13 0 C-8.34462607 -0.83796731 -4.62921525 -1.0161692 0 0 Z " fill="#20356E" transform="translate(223,372)"/>
<path d="M0 0 C0.33 0 0.66 0 1 0 C1.61528766 5.07612318 -0.38341651 7.82982006 -3 12 C-3.99 12 -4.98 12 -6 12 C-4.68315519 7.39104317 -2.84801255 3.85859765 0 0 Z " fill="#5285AB" transform="translate(128,128)"/>
<path d="M0 0 C0.99 0.495 0.99 0.495 2 1 C1.01 1.495 1.01 1.495 0 2 C0 1.34 0 0.68 0 0 Z M-3 2 C-2.01 2.33 -1.02 2.66 0 3 C-3.3 6.3 -6.6 9.6 -10 13 C-10 9.22089522 -9.00296038 8.53893899 -6.5 5.8125 C-5.8503125 5.09707031 -5.200625 4.38164063 -4.53125 3.64453125 C-4.0259375 3.10183594 -3.520625 2.55914062 -3 2 Z " fill="#C0CCD3" transform="translate(224,102)"/>
<path d="M0 0 C-0.33 0.99 -0.66 1.98 -1 3 C-5.95 3.33 -10.9 3.66 -16 4 C-13.03476487 2.02317658 -10.84158175 1.24171007 -7.4375 0.3125 C-6.46683594 0.04050781 -5.49617187 -0.23148437 -4.49609375 -0.51171875 C-2 -1 -2 -1 0 0 Z " fill="#85A9D4" transform="translate(237,428)"/>
<path d="M0 0 C-0.6875 1.875 -0.6875 1.875 -2 4 C-3.65816784 4.68753301 -5.32459336 5.35561283 -7 6 C-7.33 6.99 -7.66 7.98 -8 9 C-9.32 8.34 -10.64 7.68 -12 7 C-3.55172414 0 -3.55172414 0 0 0 Z " fill="#B6D0E1" transform="translate(270,424)"/>
<path d="M0 0 C0.66 0.66 1.32 1.32 2 2 C1.34 2 0.68 2 0 2 C-0.226875 2.78375 -0.45375 3.5675 -0.6875 4.375 C-2 7 -2 7 -4.4375 8.375 C-7 9 -7 9 -10 8 C-9.34 8 -8.68 8 -8 8 C-8 7.34 -8 6.68 -8 6 C-7.05125 5.566875 -6.1025 5.13375 -5.125 4.6875 C-1.79958063 3.20697799 -1.79958063 3.20697799 0 0 Z " fill="#203B79" transform="translate(238,360)"/>
<path d="M0 0 C2.97 0.99 5.94 1.98 9 3 C9 3.66 9 4.32 9 5 C2.375 5.25 2.375 5.25 -1 3 C-0.67 2.01 -0.34 1.02 0 0 Z " fill="#202967" transform="translate(207,427)"/>
<path d="M0 0 C3 0 3 0 5.4375 2.25 C6.283125 3.1575 7.12875 4.065 8 5 C9.1446875 6.1446875 9.1446875 6.1446875 10.3125 7.3125 C10.869375 7.869375 11.42625 8.42625 12 9 C11.01 9.495 11.01 9.495 10 10 C9.34 9.67 8.68 9.34 8 9 C8 8.34 8 7.68 8 7 C7.38125 6.7525 6.7625 6.505 6.125 6.25 C3.62181694 4.77753937 3.16954719 3.58971163 2 1 C1.34 0.67 0.68 0.34 0 0 Z " fill="#95A6AF" transform="translate(214,220)"/>
<path d="M0 0 C1.23556641 0.01740234 1.23556641 0.01740234 2.49609375 0.03515625 C3.32238281 0.04417969 4.14867187 0.05320312 5 0.0625 C5.63808594 0.07410156 6.27617187 0.08570312 6.93359375 0.09765625 C4.13703928 1.55645118 1.35102956 2.75150677 -1.62890625 3.78515625 C-2.39332031 4.05714844 -3.15773437 4.32914062 -3.9453125 4.609375 C-6.06640625 5.09765625 -6.06640625 5.09765625 -9.06640625 4.09765625 C-8.09703125 3.62328125 -7.12765625 3.14890625 -6.12890625 2.66015625 C-1.00840625 0.04765625 -1.00840625 0.04765625 0 0 Z " fill="#90C3DD" transform="translate(255.06640625,81.90234375)"/>
<path d="M0 0 C0.66 1.32 1.32 2.64 2 4 C0.68 4.33 -0.64 4.66 -2 5 C-2 5.66 -2 6.32 -2 7 C-3.65 6.67 -5.3 6.34 -7 6 C-4.83312509 3.72478134 -2.54379491 1.84205838 0 0 Z " fill="#A4C6E7" transform="translate(265,411)"/>
<path d="M0 0 C2.64 0.33 5.28 0.66 8 1 C7.67 2.32 7.34 3.64 7 5 C4.69 4.67 2.38 4.34 0 4 C0 2.68 0 1.36 0 0 Z " fill="#1F2867" transform="translate(160,411)"/>
<path d="M0 0 C-1.33250791 3.5875213 -2.830717 6.8364623 -5 10 C-5.66 10 -6.32 10 -7 10 C-4.90322581 0 -4.90322581 0 0 0 Z " fill="#2D4578" transform="translate(287,385)"/>
<path d="M0 0 C0.33 0.99 0.66 1.98 1 3 C1.763125 3.0825 2.52625 3.165 3.3125 3.25 C6.52373261 4.14615794 7.29374499 5.21611025 9 8 C8.01 8.495 8.01 8.495 7 9 C6.34 8.67 5.68 8.34 5 8 C5 7.34 5 6.68 5 6 C3.8553125 5.5978125 3.8553125 5.5978125 2.6875 5.1875 C0.12619116 4.05575888 -1.19692938 3.08776599 -3 1 C-2.01 0.67 -1.02 0.34 0 0 Z " fill="#61769C" transform="translate(223,314)"/>
<path d="M0 0 C8.35010941 2.15317287 8.35010941 2.15317287 11.0625 5.6875 C11.371875 6.450625 11.68125 7.21375 12 8 C7.44328408 6.48109469 3.68276708 4.04597738 0 1 C0 0.67 0 0.34 0 0 Z " fill="#6880A3" transform="translate(189,294)"/>
<path d="M0 0 C2.75908759 1.37954379 3.21482985 3.06486205 4.5625 5.8125 C4.99691406 6.68519531 5.43132812 7.55789062 5.87890625 8.45703125 C6.84754063 10.65417753 7.5139786 12.65726764 8 15 C3.44257733 11.05844526 1.79425794 7.76051233 0 2 C0 1.34 0 0.68 0 0 Z " fill="#5097C8" transform="translate(183,201)"/>
<path d="M0 0 C2.125 0.9375 2.125 0.9375 4 2 C2 5 2 5 -0.625 5.6875 C-1.800625 5.8421875 -1.800625 5.8421875 -3 6 C-2.625 3.5625 -2.625 3.5625 -2 1 C-1.34 0.67 -0.68 0.34 0 0 Z " fill="#CBE9F4" transform="translate(299,363)"/>
<path d="M0 0 C3.3 0 6.6 0 10 0 C10.33 2.97 10.66 5.94 11 9 C8 6 8 6 7.8125 3.3125 C7.874375 2.549375 7.93625 1.78625 8 1 C5.36 1 2.72 1 0 1 C0 0.67 0 0.34 0 0 Z " fill="#23356D" transform="translate(168,331)"/>
<path d="M0 0 C0.33 0 0.66 0 1 0 C0.67 3.3 0.34 6.6 0 10 C-0.99 9.67 -1.98 9.34 -3 9 C-2.25 2.25 -2.25 2.25 0 0 Z " fill="#2B6CA1" transform="translate(180,136)"/>
<path d="M0 0 C0.33 1.32 0.66 2.64 1 4 C-1.97 6.475 -1.97 6.475 -5 9 C-4.67 7.02 -4.34 5.04 -4 3 C-3.01 3 -2.02 3 -1 3 C-0.67 2.01 -0.34 1.02 0 0 Z " fill="#BDE5F8" transform="translate(197,111)"/>
<path d="M0 0 C-3.92141276 2.39641891 -7.63389435 4.54463145 -12 6 C-10.91663521 2.50915788 -9.8952877 1.94478806 -6.5625 0.1875 C-3 -1 -3 -1 0 0 Z " fill="#C6D1D8" transform="translate(246,91)"/>
<path d="M0 0 C0.33 0.66 0.66 1.32 1 2 C1.66 2 2.32 2 3 2 C2.67 7.94 2.34 13.88 2 20 C1.67 20 1.34 20 1 20 C0.67 13.4 0.34 6.8 0 0 Z " fill="#86B5D9" transform="translate(298,328)"/>
<path d="M0 0 C1.4606285 2.64738916 2 3.89448334 2 7 C-1.37503669 5.8141763 -3.64722731 4.72426311 -6 2 C-4.35 2 -2.7 2 -1 2 C-0.67 1.34 -0.34 0.68 0 0 Z " fill="#4C6894" transform="translate(180,282)"/>
<path d="M0 0 C1.98 1.65 3.96 3.3 6 5 C5.67 5.66 5.34 6.32 5 7 C3.02 6.34 1.04 5.68 -1 5 C-0.67 3.35 -0.34 1.7 0 0 Z " fill="#9AC5D9" transform="translate(281,272)"/>
<path d="M0 0 C3.53372712 1.96318174 6.24479785 4.04070881 9 7 C7.35 7.33 5.7 7.66 4 8 C3.71125 7.195625 3.4225 6.39125 3.125 5.5625 C2.26737432 2.8673532 2.26737432 2.8673532 0 2 C0 1.34 0 0.68 0 0 Z " fill="#346394" transform="translate(239,260)"/>
<path d="M0 0 C0 3.10685346 -0.44445982 4.29466211 -1.8125 7 C-2.31716797 8.0209375 -2.31716797 8.0209375 -2.83203125 9.0625 C-4.02068615 11.03431549 -5.30888138 12.44940413 -7 14 C-6.44010697 10.00987629 -5.24330232 7.4744948 -2.9375 4.1875 C-2.38964844 3.39730469 -1.84179688 2.60710937 -1.27734375 1.79296875 C-0.64505859 0.90544922 -0.64505859 0.90544922 0 0 Z " fill="#C2CCD0" transform="translate(207,121)"/>
<path d="M0 0 C1 1.6875 1 1.6875 1 2.6875 C-6.42857143 2.97321429 -6.42857143 2.97321429 -10 0.6875 C-2.5082054 -1.64600979 -2.5082054 -1.64600979 0 0 Z " fill="#525682" transform="translate(198,427.3125)"/>
<path d="M0 0 C1.98 0 3.96 0 6 0 C6 1.32 6 2.64 6 4 C6.66 4 7.32 4 8 4 C8.33 4.99 8.66 5.98 9 7 C8.34 7 7.68 7 7 7 C7 6.34 7 5.68 7 5 C6.21625 4.731875 5.4325 4.46375 4.625 4.1875 C2 3 2 3 0 0 Z " fill="#9DC8E8" transform="translate(258,273)"/>
<path d="M0 0 C0.99 0.33 1.98 0.66 3 1 C3 2.32 3 3.64 3 5 C2.34 5 1.68 5 1 5 C1 5.99 1 6.98 1 8 C0.01 8 -0.98 8 -2 8 C-1.34 5.36 -0.68 2.72 0 0 Z " fill="#537EA3" transform="translate(117,149)"/>
<path d="M0 0 C2.64 0 5.28 0 8 0 C7.67 0.99 7.34 1.98 7 3 C5.02 3 3.04 3 1 3 C0.67 2.01 0.34 1.02 0 0 Z " fill="#2981C0" transform="translate(217,82)"/>
<path d="M0 0 C-2.52956528 3.0916909 -5.22454612 3.90931332 -9 5 C-9 4.34 -9 3.68 -9 3 C-8.34 3 -7.68 3 -7 3 C-7 2.34 -7 1.68 -7 1 C-4.53721199 -0.231394 -2.7204945 -0.07159196 0 0 Z " fill="#263C74" transform="translate(256,417)"/>
<path d="M0 0 C-1.49097658 3.7952131 -3.75700849 5.61042731 -7 8 C-7.33 7.34 -7.66 6.68 -8 6 C-7.34 6 -6.68 6 -6 6 C-6 5.01 -6 4.02 -6 3 C-2.66666667 0 -2.66666667 0 0 0 Z " fill="#CADCE5" transform="translate(288,409)"/>
<path d="M0 0 C0.33 0 0.66 0 1 0 C1.41676948 1.76602319 1.8077738 3.53814301 2.1875 5.3125 C2.40792969 6.29863281 2.62835938 7.28476562 2.85546875 8.30078125 C2.90316406 9.19152344 2.95085937 10.08226562 3 11 C2.01 11.99 1.02 12.98 0 14 C0 9.38 0 4.76 0 0 Z " fill="#496293" transform="translate(240,340)"/>
<path d="M0 0 C0.33 0 0.66 0 1 0 C1.08226668 3.04386724 0.97608217 5.07175348 0 8 C-0.03874921 9.66621616 -0.0450286 11.33394172 0 13 C-1.9451 10.08235 -2.45276317 8.37462715 -3 5 C-2.01 4.67 -1.02 4.34 0 4 C0 2.68 0 1.36 0 0 Z " fill="#3F5389" transform="translate(179,336)"/>
<path d="M0 0 C1.875 0.625 1.875 0.625 4 2 C5.25 5.125 5.25 5.125 6 8 C5.34 8.66 4.68 9.32 4 10 C3.32845067 8.71086513 2.66291141 7.41859796 2 6.125 C1.62875 5.40570313 1.2575 4.68640625 0.875 3.9453125 C0 2 0 2 0 0 Z " fill="#5F77A0" transform="translate(117,225)"/>
<path d="M0 0 C0.33 0.66 0.66 1.32 1 2 C-1.8125 4.0625 -1.8125 4.0625 -5 6 C-5.99 5.67 -6.98 5.34 -8 5 C-5.47211993 2.20127563 -3.79588866 0.54226981 0 0 Z " fill="#487EAA" transform="translate(147,109)"/>
<path d="M0 0 C0.66 0.33 1.32 0.66 2 1 C-0.00979059 4.01468588 -0.70736015 4.83789182 -4 6 C-6.1328125 5.546875 -6.1328125 5.546875 -8 5 C-6.71475739 4.13619741 -5.42157581 3.28419631 -4.125 2.4375 C-3.04605469 1.72400391 -3.04605469 1.72400391 -1.9453125 0.99609375 C-1.30335938 0.66738281 -0.66140625 0.33867188 0 0 Z " fill="#96D0F5" transform="translate(229,81)"/>
<path d="M0 0 C3.96 0 7.92 0 12 0 C11.34 0.66 10.68 1.32 10 2 C8 2 6 2 4 2 C1.69769234 2.89831016 1.69769234 2.89831016 0 4 C0 2.68 0 1.36 0 0 Z " fill="#D6D9DE" transform="translate(270,80)"/>
<path d="M0 0 C6.75 0.75 6.75 0.75 9 3 C9 3.66 9 4.32 9 5 C5.22454612 3.90931332 2.52956528 3.0916909 0 0 Z " fill="#555984" transform="translate(160,415)"/>
<path d="M0 0 C0.66 0 1.32 0 2 0 C0.64978174 4.41889613 -1.26115668 6.34345343 -5 9 C-3.7580393 5.56072421 -2.44259716 2.74792181 0 0 Z " fill="#D3E2EA" transform="translate(293,400)"/>
<path d="M0 0 C0.99 0 1.98 0 3 0 C3 0.99 3 1.98 3 3 C3.99 3 4.98 3 6 3 C6.66 4.32 7.32 5.64 8 7 C7.01 7 6.02 7 5 7 C4.67 6.01 4.34 5.02 4 4 C3.34 4 2.68 4 2 4 C2 3.34 2 2.68 2 2 C1.34 2 0.68 2 0 2 C0 1.34 0 0.68 0 0 Z " fill="#555D87" transform="translate(137,394)"/>
<path d="M0 0 C0.33 0.99 0.66 1.98 1 3 C0.01 4.485 0.01 4.485 -1 6 C-2.32 6 -3.64 6 -5 6 C-3.63016497 2.83884224 -3.0109362 2.0072908 0 0 Z " fill="#203372" transform="translate(190,362)"/>
<path d="M0 0 C3.98381075 2.16264012 6.88983545 4.71211176 10 8 C5.60249328 7.49259538 3.13051078 4.91706686 0 2 C0 1.34 0 0.68 0 0 Z " fill="#95A2A9" transform="translate(277,267)"/>
<path d="M0 0 C4.75 1.875 4.75 1.875 7 3 C7 3.99 7 4.98 7 6 C2.32307692 4.52307692 2.32307692 4.52307692 0.6875 1.875 C0.460625 1.25625 0.23375 0.6375 0 0 Z " fill="#BDDEF6" transform="translate(230,251)"/>
<path d="M0 0 C0.99 0.33 1.98 0.66 3 1 C3 2.65 3 4.3 3 6 C1.68 6 0.36 6 -1 6 C-1.042721 4.33388095 -1.04063832 2.66617115 -1 1 C-0.67 0.67 -0.34 0.34 0 0 Z " fill="#222A69" transform="translate(173,416)"/>
<path d="M0 0 C0.66 0.33 1.32 0.66 2 1 C1.67 2.65 1.34 4.3 1 6 C0.01 6 -0.98 6 -2 6 C-2 4.35 -2 2.7 -2 1 C-1.34 0.67 -0.68 0.34 0 0 Z " fill="#2C396E" transform="translate(118,348)"/>
<path d="M0 0 C0.33 0 0.66 0 1 0 C1.99 3.63 2.98 7.26 4 11 C3.01 11 2.02 11 1 11 C-0.28317892 7.15046324 -0.06643637 4.05261865 0 0 Z " fill="#6A749E" transform="translate(180,341)"/>
<path d="M0 0 C3 1 3 1 4.75 3.875 C6 7 6 7 5 10 C4.67 8.68 4.34 7.36 4 6 C3.34 6 2.68 6 2 6 C1.34 4.02 0.68 2.04 0 0 Z " fill="#68A7D4" transform="translate(287,300)"/>
<path d="M0 0 C0.66 0 1.32 0 2 0 C5.22265625 5.2734375 5.22265625 5.2734375 6 7 C5.67 7.66 5.34 8.32 5 9 C4.34 7.35 3.68 5.7 3 4 C2.01 4.33 1.02 4.66 0 5 C0 3.35 0 1.7 0 0 Z " fill="#DEDEE0" transform="translate(362,131)"/>
<path d="M0 0 C0.66 0.33 1.32 0.66 2 1 C0.41641358 4.16717283 -0.45263699 5.73268318 -3.6875 7.3125 C-4.450625 7.539375 -5.21375 7.76625 -6 8 C-4.55746343 4.63408134 -2.66735273 2.48952921 0 0 Z " fill="#787E81" transform="translate(288,410)"/>
<path d="M0 0 C0.99 0.33 1.98 0.66 3 1 C1.35 2.65 -0.3 4.3 -2 6 C-2.99 5.67 -3.98 5.34 -5 5 C-3.35 3.35 -1.7 1.7 0 0 Z " fill="#878787" transform="translate(335,409)"/>
<path d="M0 0 C0.33 0.66 0.66 1.32 1 2 C1.99 1.67 2.98 1.34 4 1 C3.67 2.65 3.34 4.3 3 6 C1.68 5.34 0.36 4.68 -1 4 C-0.67 2.68 -0.34 1.36 0 0 Z " fill="#27356F" transform="translate(121,361)"/>
<path d="M0 0 C-0.50603992 2.16874252 -0.99983813 3.99967627 -2 6 C-2.99 6 -3.98 6 -5 6 C-5 3 -5 3 -3.625 1.3125 C-2 0 -2 0 0 0 Z " fill="#959595" transform="translate(363,382)"/>
<path d="M0 0 C0.33 0.66 0.66 1.32 1 2 C1.99 2.33 2.98 2.66 4 3 C3.67 5.31 3.34 7.62 3 10 C1.11608215 6.73454239 0.50712033 3.71888239 0 0 Z " fill="#76B9E1" transform="translate(180,190)"/>
<path d="M0 0 C0.33 1.32 0.66 2.64 1 4 C0.01 4.66 -0.98 5.32 -2 6 C-2.99 5.67 -3.98 5.34 -5 5 C-3.35 3.35 -1.7 1.7 0 0 Z " fill="#769FC0" transform="translate(149,104)"/>
<path d="M0 0 C0.99 0.33 1.98 0.66 3 1 C2.67 2.32 2.34 3.64 2 5 C0.68 5 -0.64 5 -2 5 C-1.34 3.35 -0.68 1.7 0 0 Z " fill="#CBEAF6" transform="translate(203,103)"/>
</svg>
